<svg xmlns="http://www.w3.org/2000/svg" width="24.97" height="34" viewBox="0 0 24.97 34">
  <metadata><?xpacket begin="﻿" id="W5M0MpCehiHzreSzNTczkc9d"?>
<x:xmpmeta xmlns:x="adobe:ns:meta/" x:xmptk="Adobe XMP Core 5.6-c138 79.159824, 2016/09/14-01:09:01        ">
   <rdf:RDF xmlns:rdf="http://www.w3.org/1999/02/22-rdf-syntax-ns#">
      <rdf:Description rdf:about=""/>
   </rdf:RDF>
</x:xmpmeta>
                                                                                                    
                                                                                                    
                                                                                                    
                                                                                                    
                                                                                                    
                                                                                                    
                                                                                                    
                                                                                                    
                                                                                                    
                                                                                                    
                                                                                                    
                                                                                                    
                                                                                                    
                                                                                                    
                                                                                                    
                                                                                                    
                                                                                                    
                                                                                                    
                                                                                                    
                                                                                                    
                           
<?xpacket end="w"?></metadata>
<defs>
    <style>
      .cls-1 {
        fill: #6d6e71;
        fill-rule: evenodd;
        display: block
      }
      svg {
        cursor: pointer;
      }
      svg:hover .cls-1 {
        fill: #1faae2;
      }
    </style>
  </defs>
  <path id="icon" class="cls-1" d="M1459.46,161c-2.07.011-12.48-15.917-12.48-21.247a12.483,12.483,0,1,1,24.96,0C1471.94,145.007,1461.5,161.006,1459.46,161Zm0-31.87a10.516,10.516,0,0,0-10.4,10.623c0,4.442,8.67,18.069,10.4,18.06,1.7,0.009,10.4-13.678,10.4-18.06A10.516,10.516,0,0,0,1459.46,129.125Zm0,15.935a5.313,5.313,0,1,1,5.2-5.312A5.258,5.258,0,0,1,1459.46,145.06Zm0-8.5a3.188,3.188,0,1,0,3.12,3.187A3.156,3.156,0,0,0,1459.46,136.561Z" transform="translate(-1446.97 -127)"/>
</svg>
