<svg xmlns="http://www.w3.org/2000/svg" width="27.88" height="28.093" viewBox="0 0 27.88 28.093">
  <metadata><?xpacket begin="﻿" id="W5M0MpCehiHzreSzNTczkc9d"?>
<x:xmpmeta xmlns:x="adobe:ns:meta/" x:xmptk="Adobe XMP Core 5.6-c138 79.159824, 2016/09/14-01:09:01        ">
   <rdf:RDF xmlns:rdf="http://www.w3.org/1999/02/22-rdf-syntax-ns#">
      <rdf:Description rdf:about=""/>
   </rdf:RDF>
</x:xmpmeta>
                                                                                                    
                                                                                                    
                                                                                                    
                                                                                                    
                                                                                                    
                                                                                                    
                                                                                                    
                                                                                                    
                                                                                                    
                                                                                                    
                                                                                                    
                                                                                                    
                                                                                                    
                                                                                                    
                                                                                                    
                                                                                                    
                                                                                                    
                                                                                                    
                                                                                                    
                                                                                                    
                           
<?xpacket end="w"?></metadata>
<defs>
    <style>
      .cls-1 {
        fill: #6d6e71;
        fill-rule: evenodd;
        display: block
      }
      svg {
        cursor: pointer;
      }
      svg:hover .cls-1 {
        fill: #1faae2;
      }
    </style>
  </defs>
  <path id="icon" class="cls-1" d="M1375.41,130.606l-2.58,2.6c-1.42,1.436-.74,3.15,0,5.2a61.385,61.385,0,0,0,8.14,10.714,55.137,55.137,0,0,0,10.58,8.136c1.88,0.975,3.73,1.436,5.16,0l2.58-2.6a1.721,1.721,0,0,0,0-2.6l-5.16-3.9a1.932,1.932,0,0,0-2.58,0h0l-1.53,1.538a51.908,51.908,0,0,1-5.57-4.788,43.972,43.972,0,0,1-4.16-4.909l1.58-1.591a1.974,1.974,0,0,0,0-2.6l-3.88-5.2a1.814,1.814,0,0,0-2.58,0m2.51,9.179,2.07-2.088a1.254,1.254,0,0,0,0-1.655l-2.47-3.309a1.04,1.04,0,0,0-1.64,0l-1.64,1.655c-0.65.61-.46,2.033-0.12,2.718a54.855,54.855,0,0,0,7.75,10.4c3.26,3.57,10.97,8.45,10.97,8.45a3.277,3.277,0,0,0,2.7-.118l1.64-1.655a1.25,1.25,0,0,0,0-1.654l-3.29-2.482a1.227,1.227,0,0,0-1.64,0l-2.02,2.038C1389.75,151.747,1382.15,146.714,1377.92,139.785Z" transform="translate(-1372 -130.063)"/>
</svg>
