<svg xmlns="http://www.w3.org/2000/svg" width="24.97" height="34" cursor="pointer"><defs><style></style></defs><path id="icon" d="M1459.46 161c-2.07.011-12.48-15.917-12.48-21.247a12.483 12.483 0 1124.96 0c0 5.254-10.44 21.253-12.48 21.247zm0-31.87a10.516 10.516 0 00-10.4 10.623c0 4.442 8.67 18.069 10.4 18.06 1.7.009 10.4-13.678 10.4-18.06a10.516 10.516 0 00-10.4-10.628zm0 15.935a5.313 5.313 0 115.2-5.312 5.258 5.258 0 01-5.2 5.307zm0-8.5a3.188 3.188 0 103.12 3.187 3.156 3.156 0 00-3.12-3.191z" transform="translate(-1446.97 -127)" fill="#6d6e71" fill-rule="evenodd" display="block"/></svg>