<svg xmlns="http://www.w3.org/2000/svg" width="29.34" height="23.656" cursor="pointer"><defs><style></style></defs><path id="icon" d="M1543.33 155.271h-22.02a3.652 3.652 0 01-3.67-3.638v-16.372a3.652 3.652 0 013.67-3.638h22.02a3.652 3.652 0 013.67 3.638v16.372a3.652 3.652 0 01-3.67 3.638zm-21.1-21.829l10.09 8.7 10.09-8.7h-20.18zm22.94 1.819a1.8 1.8 0 00-.59-1.324l-12.26 10.419-12.26-10.419a1.79 1.79 0 00-.58 1.324v16.372a1.825 1.825 0 001.83 1.819h22.02a1.833 1.833 0 001.84-1.819v-16.372z" transform="translate(-1517.66 -131.625)" fill="#6d6e71" fill-rule="evenodd" display="block"/></svg>