<svg xmlns="http://www.w3.org/2000/svg" width="27.88" height="28.093" cursor="pointer"><defs><style></style></defs><path id="icon" d="M1375.41 130.606l-2.58 2.6c-1.42 1.436-.74 3.15 0 5.2a61.385 61.385 0 008.14 10.714 55.137 55.137 0 0010.58 8.136c1.88.975 3.73 1.436 5.16 0l2.58-2.6a1.721 1.721 0 000-2.6l-5.16-3.9a1.932 1.932 0 00-2.58 0l-1.53 1.538a51.908 51.908 0 01-5.57-4.788 43.972 43.972 0 01-4.16-4.909l1.58-1.591a1.974 1.974 0 000-2.6l-3.88-5.2a1.814 1.814 0 00-2.58 0m2.51 9.179l2.07-2.088a1.254 1.254 0 000-1.655l-2.47-3.309a1.04 1.04 0 00-1.64 0l-1.64 1.655c-.65.61-.46 2.033-.12 2.718a54.855 54.855 0 007.75 10.4c3.26 3.57 10.97 8.45 10.97 8.45a3.277 3.277 0 002.7-.118l1.64-1.655a1.25 1.25 0 000-1.654l-3.29-2.482a1.227 1.227 0 00-1.64 0l-2.02 2.038c-.48-.338-8.08-5.371-12.31-12.3z" transform="translate(-1372 -130.063)" fill="#6d6e71" fill-rule="evenodd" display="block"/></svg>