<svg xmlns="http://www.w3.org/2000/svg" width="32" height="27.97" viewBox="0 0 32 27.97">
  <metadata><?xpacket begin="﻿" id="W5M0MpCehiHzreSzNTczkc9d"?>
<x:xmpmeta xmlns:x="adobe:ns:meta/" x:xmptk="Adobe XMP Core 5.6-c138 79.159824, 2016/09/14-01:09:01        ">
   <rdf:RDF xmlns:rdf="http://www.w3.org/1999/02/22-rdf-syntax-ns#">
      <rdf:Description rdf:about=""/>
   </rdf:RDF>
</x:xmpmeta>
                                                                                                    
                                                                                                    
                                                                                                    
                                                                                                    
                                                                                                    
                                                                                                    
                                                                                                    
                                                                                                    
                                                                                                    
                                                                                                    
                                                                                                    
                                                                                                    
                                                                                                    
                                                                                                    
                                                                                                    
                                                                                                    
                                                                                                    
                                                                                                    
                                                                                                    
                                                                                                    
                           
<?xpacket end="w"?></metadata>
<defs>
    <style>
      .cls-1 {
        fill: #cc9800;;
        fill-rule: evenodd;
      }
    </style>
  </defs>
  <path id="icon" class="cls-1" d="M980.2,1020.11a9.643,9.643,0,0,0-13.192-.29,9.643,9.643,0,0,0-13.192.29,9.391,9.391,0,0,0,0,13.39c1.069,1.06,11.053,10.93,11.053,10.93a3.046,3.046,0,0,0,4.278,0L980.2,1033.5A9.391,9.391,0,0,0,980.2,1020.11Zm-1.427,11.98-11.053,10.93a1.014,1.014,0,0,1-1.425,0l-11.052-10.93a7.418,7.418,0,0,1,0-10.57,7.6,7.6,0,0,1,10.409-.22l1.356,1.22,1.356-1.22a7.6,7.6,0,0,1,10.409.22A7.418,7.418,0,0,1,978.769,1032.09Zm-18.514-9.75s0,0.01,0,.01a4.245,4.245,0,0,0-4.246,4.24h0a0.5,0.5,0,0,0,1,0h0a3.254,3.254,0,0,1,3.249-3.25h0a0.5,0.5,0,0,0,.5-0.5A0.5,0.5,0,0,0,960.255,1022.34Z" transform="translate(-951 -1017.34)"/>
</svg>
