<svg xmlns="http://www.w3.org/2000/svg" width="32" height="27.97"><path d="M29.2 2.77a9.643 9.643 0 00-13.192-.29 9.643 9.643 0 00-13.192.29 9.391 9.391 0 000 13.39c1.069 1.06 11.053 10.93 11.053 10.93a3.046 3.046 0 004.278 0L29.2 16.16a9.391 9.391 0 000-13.39zm-1.427 11.98L16.72 25.68a1.014 1.014 0 01-1.425 0L4.243 14.75a7.418 7.418 0 010-10.57 7.6 7.6 0 0110.409-.22l1.356 1.22 1.356-1.22a7.6 7.6 0 0110.409.22 7.418 7.418 0 01-.004 10.57zM9.259 5v.01a4.245 4.245 0 00-4.246 4.24.5.5 0 001 0A3.254 3.254 0 019.262 6a.5.5 0 00.5-.5.5.5 0 00-.507-.5z" fill="#cc9800" fill-rule="evenodd"/></svg>